<svg width="1189" height="2002" viewBox="0 0 1189 2002" fill="none" xmlns="http://www.w3.org/2000/svg">
<path d="M12.132 1070.34C73.3111 1077.37 160.794 1074.15 252.722 1059.05C261.066 1057.69 266.236 1049.16 263.47 1041.18L231.18 947.303C210.545 880.999 158.3 800.138 123.561 739.73C87.6875 743.63 51.2703 744.219 14.6263 741.362C6.82585 740.773 0.15918 747.077 0.15918 754.922C0.15918 810.569 0.15918 1006.4 0.15918 1056.83C0.15918 1063.72 5.2839 1069.53 12.132 1070.3V1070.34Z" fill="white"/>
<path d="M323.56 891.202L425.783 1007.3C429.456 1011.47 435.352 1013.02 440.613 1011.11C575.352 962.131 685.737 882.766 693.356 767.483C696.894 630.34 544.966 536.553 432.721 611.111C366.055 664.172 291.27 701.905 212.132 723.129C243.833 777.506 280.794 845.17 323.515 891.202H323.56Z" fill="white"/>
<path d="M337.348 1218.96C326.191 1199.91 316.078 1180.32 307.098 1160.18C304.468 1154.29 298.119 1151.02 291.77 1152.38C199.842 1172.11 106.373 1178.68 15.2164 1169.98C7.1892 1169.21 0.205078 1175.42 0.205078 1183.49V1517.32C0.205078 1524.17 5.28444 1530.02 12.0872 1530.84C189.23 1552.61 333.448 1515.51 460.749 1459.09C468.142 1455.83 470.999 1446.8 466.917 1439.82L337.393 1219L337.348 1218.96Z" fill="white"/>
<path d="M670.59 990.521C617.892 1025.76 562.019 1056.46 504.241 1082.4C496.803 1085.76 493.855 1094.78 498.119 1101.77C530.046 1154.29 642.744 1348.21 649.865 1359.77C826.191 1257.87 981.792 1159.68 1175.85 1212.38C1181.57 1213.92 1187.19 1209.57 1187.19 1203.63V864.762C1187.19 858.821 1183.33 853.469 1177.62 851.746C995.352 797.188 833.583 885.896 670.59 990.476V990.521Z" fill="white"/>
<path d="M706.736 1429.61C700.205 1433.38 697.983 1441.72 701.792 1448.25C727.461 1492.11 770.591 1565.4 792.269 1602.59C795.897 1608.75 795.126 1616.55 790.228 1621.81C758.074 1656.46 685.103 1700.59 638.754 1710.75C631.906 1712.24 624.876 1709.16 621.339 1703.08L527.915 1543.85C524.287 1537.69 516.577 1535.42 510.182 1538.55C366.01 1609.16 215.08 1656.92 15.4885 1633.92C7.37061 1632.97 0.205078 1639.23 0.205078 1647.44V1981.13C0.205078 1987.89 5.19374 1993.7 11.9058 1994.6C540.749 2066.85 784.604 1574.74 1175.99 1676.24C1181.7 1677.73 1187.23 1673.33 1187.23 1667.44V1328.62C1187.23 1322.54 1183.2 1317.14 1177.35 1315.51C1003.65 1267.66 860.931 1340.77 706.736 1429.57V1429.61Z" fill="white"/>
<path d="M1177.89 1777.1C946.418 1702.18 742.926 1884.99 541.746 1989.93C537.574 1992.11 539.161 1998.46 543.878 1998.46H1173.58C1181.11 1998.46 1187.19 1992.38 1187.19 1984.85V1789.98C1187.19 1784.13 1183.47 1778.87 1177.94 1777.05L1177.89 1777.1Z" fill="white"/>
<path d="M13.7646 0C6.23628 0 0.15918 6.0771 0.15918 13.6054V520.318C0.15918 522.676 0.7941 525.034 1.97324 527.075L123.606 739.728C153.583 736.463 183.198 730.93 212.177 723.084L80.5673 497.869C76.7578 491.338 78.98 482.993 85.5106 479.229L261.52 377.732C357.347 322.812 448.05 319.819 522.245 357.324C522.245 357.324 648.867 430.159 772.585 360.998L1180.79 104.898C1184.74 102.404 1187.19 98.0499 1187.19 93.3787V13.6054C1187.19 6.0771 1181.11 0 1173.58 0H13.7646Z" fill="white"/>
</svg>
