<svg width="2000" height="798" viewBox="0 0 2000 798" fill="none" xmlns="http://www.w3.org/2000/svg">
<path d="M577.188 132.212H628.147V233.688H663.858V3.46643H628.147V99.4281H577.188V3.46643H541.477V233.688H577.188V132.212Z" fill="white"/>
<path d="M759.605 237.138C781.801 237.138 799.124 229.539 809.536 215.042C818.901 201.929 822.709 186.391 822.709 160.505V76.6328C822.709 50.7472 818.901 35.2087 809.536 22.0953C799.142 7.59861 781.801 0 759.605 0C737.41 0 720.087 7.59861 709.675 22.0953C700.309 35.2087 696.502 50.7472 696.502 76.6328V160.505C696.502 186.391 700.309 201.929 709.675 215.042C720.069 229.539 737.41 237.138 759.605 237.138ZM732.213 77.3334C732.213 59.0464 733.26 52.831 736.724 45.915C740.893 38.3164 749.554 33.4842 759.605 33.4842C769.656 33.4842 778.336 38.3164 782.486 45.915C786.294 53.1723 786.998 58.6871 786.998 77.3334V159.822C786.998 178.469 786.312 183.983 782.486 191.241C778.318 198.839 769.656 203.672 759.605 203.672C749.554 203.672 740.875 198.839 736.724 191.241C733.26 184.343 732.213 178.127 732.213 159.822V77.3334Z" fill="white"/>
<path d="M962.485 200.905H891.405V3.46655H855.694V233.688H962.485V200.905Z" fill="white"/>
<path d="M1020.41 3.46643H984.698V233.688H1020.41V3.46643Z" fill="white"/>
<path d="M1179.24 161.546V75.6083C1179.24 26.6036 1157.75 3.46643 1112.33 3.46643H1055.81V233.688H1112.33C1157.75 233.688 1179.24 210.569 1179.24 161.546ZM1091.51 200.905V36.268H1109.19C1134.51 36.268 1143.51 49.0401 1143.51 85.2728V151.882C1143.51 187.773 1134.49 200.887 1109.19 200.887H1091.51V200.905Z" fill="white"/>
<path d="M1304.53 233.688H1341.29L1294.48 3.46643H1245.59L1201.22 233.688H1236.25L1245.61 183.642H1294.84L1304.55 233.688H1304.53ZM1251.13 150.858L1269.86 47.6569L1288.94 150.858H1251.15H1251.13Z" fill="white"/>
<path d="M1406.39 100.811L1375.53 3.46643H1336L1388 143.942V233.688H1423.71V143.942L1477.11 3.46643H1438.28L1406.39 100.811Z" fill="white"/>
<path d="M663.858 349.536C663.858 326.758 656.928 309.154 643.052 297.423C631.954 287.759 618.438 283.609 597.29 283.609H541.477V513.831H577.188V419.253H598.679L629.193 513.831H666.637L632.658 409.247C653.464 398.541 663.858 378.529 663.858 349.536ZM618.096 379.212C612.556 384.727 605.609 386.451 590.36 386.451H577.188V316.375H590.36C605.609 316.375 612.556 318.1 618.096 323.632C623.996 329.506 626.757 338.812 626.757 351.242C626.757 363.673 623.978 373.338 618.096 379.194V379.212Z" fill="white"/>
<path d="M730.912 283.609H695.201V513.831H730.912V283.609Z" fill="white"/>
<path d="M757.566 283.609L807.136 513.831H851.527L896.242 283.609H859.845L829.331 458.611L794.667 283.609H757.566Z" fill="white"/>
<path d="M1027.45 316.393V283.609H922.73V513.831H1027.45V481.048H958.442V409.93H1009.42V377.146H958.442V316.393H1027.45Z" fill="white"/>
<path d="M1177.24 513.831L1143.26 409.247C1164.06 398.541 1174.46 378.529 1174.46 349.536C1174.46 326.758 1167.53 309.154 1153.65 297.423C1142.55 287.759 1129.04 283.609 1107.89 283.609H1052.06V513.831H1087.77V419.253H1109.26L1139.78 513.831H1177.22H1177.24ZM1128.7 379.212C1123.16 384.727 1116.21 386.451 1100.96 386.451H1087.79V316.375H1100.96C1116.21 316.375 1123.16 318.1 1128.7 323.632C1134.6 329.506 1137.36 338.812 1137.36 351.242C1137.36 363.673 1134.58 373.338 1128.7 379.194V379.212Z" fill="white"/>
<path d="M541.477 793.974H646.192V761.173H577.188V690.073H628.147V657.289H577.188V596.536H646.192V563.752H541.477V793.974Z" fill="white"/>
<path d="M807.207 563.752H768.375L739.593 637.619L708.736 563.752H669.199L718.787 673.851L667.124 793.974H706.3L738.889 710.102L774.257 793.974H813.794L759.695 673.851L807.207 563.752Z" fill="white"/>
<path d="M895.682 563.752H836.386V793.974H872.097V700.779H895.682C918.906 700.779 933.468 696.288 944.223 685.941C956.71 674.211 962.593 656.948 962.593 632.104C962.593 607.26 956.692 590.339 944.223 578.608C933.468 568.261 918.906 563.77 895.682 563.77V563.752ZM887.706 667.995H872.097V596.554H887.706C916.488 596.554 925.492 605.177 925.492 632.104C925.492 659.031 916.469 667.995 887.706 667.995Z" fill="white"/>
<path d="M989.769 793.974H1094.48V761.173H1025.48V690.073H1076.46V657.289H1025.48V596.536H1094.48V563.752H989.769V793.974Z" fill="white"/>
<path d="M1175.63 563.752H1119.11V793.974H1175.63C1221.05 793.974 1242.54 770.855 1242.54 721.832V635.894C1242.54 586.89 1221.05 563.752 1175.63 563.752ZM1206.85 712.168C1206.85 748.059 1197.83 761.173 1172.53 761.173H1154.84V596.536H1172.53C1197.84 596.536 1206.85 609.308 1206.85 645.541V712.15V712.168Z" fill="white"/>
<path d="M1310.93 563.752H1275.22V793.974H1310.93V563.752Z" fill="white"/>
<path d="M1335.8 596.536H1380.53V793.974H1416.24V596.536H1461.32V563.752H1335.8V596.536Z" fill="white"/>
<path d="M1521.88 563.752H1486.17V793.974H1521.88V563.752Z" fill="white"/>
<path d="M1617.93 560.304C1595.76 560.304 1578.41 567.902 1568 582.399C1558.64 595.512 1554.83 611.051 1554.83 636.936V720.809C1554.83 746.694 1558.64 762.233 1568 775.346C1578.4 789.843 1595.74 797.441 1617.93 797.441C1640.13 797.441 1657.47 789.843 1667.86 775.346C1677.21 762.233 1681.04 746.694 1681.04 720.809V636.936C1681.04 611.051 1677.23 595.512 1667.86 582.399C1657.47 567.902 1640.13 560.304 1617.93 560.304ZM1645.33 720.108C1645.33 738.754 1644.64 744.269 1640.81 751.508C1636.65 759.107 1627.98 763.939 1617.92 763.939C1607.85 763.939 1599.2 759.107 1595.03 751.508C1591.57 744.61 1590.52 738.395 1590.52 720.108V637.619C1590.52 619.332 1591.57 613.117 1595.03 606.219C1599.2 598.62 1607.86 593.788 1617.92 593.788C1627.97 593.788 1636.65 598.62 1640.81 606.219C1644.62 613.458 1645.33 618.991 1645.33 637.619V720.108Z" fill="white"/>
<path d="M1808.34 706.994L1750.09 563.752H1714.04V793.974H1748.02V640.727L1810.42 793.974H1842.32V563.752H1808.34V706.994Z" fill="white"/>
<path d="M1985.08 696.628C1977.44 687.305 1970.17 680.748 1950.76 665.569C1934.35 653.138 1924.17 644.737 1920.24 640.366C1914 633.809 1910.53 625.187 1910.53 617.247C1910.53 603.792 1920.58 593.768 1933.76 593.768C1948.32 593.768 1958.73 605.157 1964.27 627.935L1998.61 617.93C1988.9 579.954 1966.71 560.284 1933.77 560.284C1898.41 560.284 1873.45 583.763 1873.45 616.888C1873.45 631.043 1877.96 644.498 1886.28 655.204C1894.94 666.252 1896.33 667.635 1928.58 692.82C1955.63 713.873 1962.9 723.196 1962.9 737.693C1962.9 753.232 1952.16 763.92 1936.55 763.92C1917.48 763.92 1905.35 750.106 1900.84 722.496L1866.5 732.502C1873.79 776.333 1897.02 797.386 1936.55 797.386C1976.09 797.386 2000 773.566 2000 738.717C2000 723.178 1994.44 707.999 1985.08 696.61V696.628Z" fill="white"/>
<path d="M4.76388 426.762C29.0705 429.528 63.8252 428.271 100.348 422.307C103.669 421.768 105.708 418.409 104.625 415.247L91.7949 378.117C83.6025 351.89 62.8508 319.896 49.0463 296.023C34.7908 297.568 20.3367 297.783 5.7744 296.67C2.65262 296.418 0 298.897 0 302.023C0 324.046 0 401.469 0 421.427C0 424.157 2.03909 426.457 4.76388 426.762Z" fill="white"/>
<path d="M128.479 355.913L169.099 401.828C170.56 403.48 172.906 404.091 174.999 403.337C228.539 383.954 272.388 352.589 275.42 306.98C276.827 252.748 216.467 215.653 171.878 245.131C145.405 266.113 115.667 281.04 84.251 289.429C96.8464 310.932 111.535 337.698 128.497 355.913H128.479Z" fill="white"/>
<path d="M133.966 485.539C129.545 477.994 125.503 470.252 121.948 462.294C120.902 459.959 118.375 458.665 115.849 459.204C79.3258 467 42.1892 469.605 5.9729 466.156C2.77893 465.851 0 468.312 0 471.509V603.542C0 606.254 2.02104 608.554 4.72779 608.895C75.1033 617.5 132.414 602.823 182.976 580.513C185.918 579.219 187.036 575.644 185.412 572.878L133.966 485.539Z" fill="white"/>
<path d="M266.363 395.182C245.431 409.104 223.217 421.265 200.282 431.522C197.323 432.852 196.168 436.426 197.846 439.193C210.532 459.977 255.301 536.663 258.134 541.244C328.185 500.952 390.007 462.096 467.096 482.952C469.369 483.563 471.607 481.838 471.607 479.485V345.459C471.607 343.105 470.073 341.004 467.817 340.321C395.403 318.729 331.144 353.83 266.363 395.2V395.182Z" fill="white"/>
<path d="M280.708 568.854C278.11 570.345 277.225 573.651 278.741 576.219C288.937 593.554 306.061 622.547 314.687 637.26C316.13 639.703 315.824 642.792 313.875 644.858C301.099 658.565 272.101 676.007 253.695 680.031C250.97 680.624 248.173 679.402 246.783 676.995L209.665 614.033C208.239 611.608 205.154 610.692 202.609 611.931C145.334 639.846 85.3709 658.744 6.06312 649.655C2.83307 649.277 0 651.756 0 654.99V786.968C0 789.645 1.98495 791.944 4.65561 792.304C214.754 820.884 311.637 626.248 467.131 666.397C469.405 666.989 471.606 665.247 471.606 662.912V528.903C471.606 526.496 470.018 524.358 467.69 523.73C398.686 504.814 341.971 533.717 280.726 568.836L280.708 568.854Z" fill="white"/>
<path d="M467.906 706.276C375.949 676.654 295.107 748.94 215.168 790.454C213.508 791.316 214.14 793.831 216.016 793.831H466.192C469.17 793.831 471.606 791.424 471.606 788.442V711.378C471.606 709.061 470.126 706.977 467.925 706.276H467.906Z" fill="white"/>
<path d="M5.4135 3.4493C2.41803 3.4493 0 5.85642 0 8.82042V209.223C0 210.157 0.25263 211.073 0.7218 211.899L49.0463 296.005C60.956 294.711 72.7214 292.52 84.2341 289.43L31.9577 200.367C30.4419 197.798 31.3261 194.474 33.9246 192.983L103.849 152.835C141.924 131.099 177.96 129.931 207.427 144.769C207.427 144.769 257.737 173.565 306.891 146.224L469.08 44.9273C470.65 43.9393 471.606 42.2148 471.606 40.3645V8.82042C471.606 5.85642 469.188 3.43134 466.193 3.43134H5.4135V3.4493Z" fill="white"/>
</svg>
