<svg width="1189" height="2000" viewBox="0 0 1189 2000" fill="none" xmlns="http://www.w3.org/2000/svg">
<path d="M7.71806 689.838C47.0977 694.341 103.404 692.294 162.576 682.587C167.955 681.71 171.259 676.242 169.505 671.095L148.719 610.657C135.446 567.967 101.826 515.891 79.4609 477.031C56.3652 479.546 32.9479 479.897 9.35522 478.084C4.29755 477.674 0 481.709 0 486.797C0 522.645 0 648.669 0 681.154C0 685.598 3.30356 689.341 7.71806 689.838Z" fill="white"/>
<path d="M208.152 574.515L273.96 649.252C276.328 651.942 280.129 652.936 283.52 651.708C370.261 620.159 441.302 569.106 446.213 494.866C448.494 406.591 350.702 346.211 278.463 394.194C235.575 428.346 187.395 452.644 136.497 466.299C156.903 501.299 180.7 544.866 208.181 574.515H208.152Z" fill="white"/>
<path d="M217.041 785.511C209.879 773.23 203.33 760.628 197.571 747.674C195.875 743.873 191.782 741.768 187.689 742.645C128.517 755.335 68.3516 759.575 9.67681 753.961C4.5022 753.464 0 757.47 0 762.674V977.587C0 982.002 3.27433 985.745 7.65959 986.3C121.676 1000.31 214.527 976.417 296.444 940.101C301.209 937.996 303.021 932.177 300.39 927.674L217.041 785.511Z" fill="white"/>
<path d="M431.54 638.435C397.627 661.095 361.639 680.891 324.481 697.587C319.687 699.75 317.816 705.569 320.534 710.072C341.087 743.902 413.619 868.727 418.209 876.183C531.699 810.598 631.859 747.353 756.751 781.3C760.434 782.294 764.06 779.487 764.06 775.657V557.499C764.06 553.669 761.575 550.247 757.92 549.136C640.6 513.99 536.494 571.125 431.54 638.464V638.435Z" fill="white"/>
<path d="M454.781 921.125C450.571 923.552 449.138 928.932 451.594 933.113C468.112 961.329 495.856 1008.52 509.83 1032.47C512.169 1036.45 511.672 1041.48 508.515 1044.84C487.816 1067.15 440.836 1095.54 411.016 1102.09C406.601 1103.05 402.07 1101.07 399.819 1097.15L339.682 994.663C337.373 990.715 332.373 989.224 328.251 991.242C235.459 1036.68 138.311 1067.44 9.82298 1052.65C4.58991 1052.03 0 1056.07 0 1061.33V1276.15C0 1280.51 3.21586 1284.25 7.54265 1284.84C347.927 1331.36 504.89 1014.55 756.808 1079.9C760.492 1080.86 764.058 1078.03 764.058 1074.22V856.095C764.058 852.177 761.486 848.698 757.714 847.674C645.919 816.885 554.034 863.932 454.81 921.095L454.781 921.125Z" fill="white"/>
<path d="M758.064 1144.81C609.082 1096.59 478.109 1214.25 348.598 1281.83C345.908 1283.23 346.931 1287.32 349.972 1287.32H755.287C760.111 1287.32 764.057 1283.41 764.057 1278.55V1153.11C764.057 1149.34 761.66 1145.95 758.093 1144.81H758.064Z" fill="white"/>
<path d="M8.77052 0.803043C3.9175 0.803043 0 4.72117 0 9.54573V335.745C0 337.265 0.409291 338.756 1.1694 340.101L79.4609 477.002C98.7561 474.897 117.817 471.329 136.469 466.3L51.7753 321.329C49.3196 317.148 50.7521 311.739 54.9619 309.312L168.248 243.961C229.934 208.581 288.316 206.68 336.057 230.832C336.057 230.832 417.564 277.704 497.201 233.201L759.966 68.3177C762.509 66.7095 764.058 63.9025 764.058 60.8908V9.54573C764.058 4.72117 760.141 0.773804 755.288 0.773804H8.77052V0.803043Z" fill="white"/>
<path d="M30.4044 1455.22H71.8889V1538.2H100.949V1349.95H71.8889V1428.4H30.4044V1349.95H1.34473V1538.2H30.4044V1455.22Z" fill="white"/>
<path d="M178.861 1541.04C196.928 1541.04 211.02 1534.84 219.498 1522.97C227.128 1512.24 230.227 1499.55 230.227 1478.38V1409.78C230.227 1388.61 227.128 1375.92 219.498 1365.19C211.02 1353.35 196.928 1347.12 178.861 1347.12C160.794 1347.12 146.703 1353.32 138.224 1365.19C130.594 1375.92 127.495 1388.61 127.495 1409.78V1478.38C127.495 1499.55 130.594 1512.24 138.224 1522.97C146.703 1534.81 160.794 1541.04 178.861 1541.04ZM156.584 1410.34C156.584 1395.36 157.432 1390.31 160.238 1384.66C163.63 1378.46 170.675 1374.49 178.861 1374.49C187.047 1374.49 194.093 1378.43 197.484 1384.66C200.583 1390.6 201.138 1395.1 201.138 1410.34V1477.79C201.138 1493.03 200.583 1497.56 197.484 1503.46C194.093 1509.66 187.047 1513.64 178.861 1513.64C170.675 1513.64 163.63 1509.69 160.238 1503.46C157.403 1497.82 156.584 1492.73 156.584 1477.79V1410.34Z" fill="white"/>
<path d="M344.008 1511.39H286.151V1349.95H257.092V1538.2H344.008V1511.39Z" fill="white"/>
<path d="M391.135 1349.95H362.075V1538.23H391.135V1349.95Z" fill="white"/>
<path d="M520.415 1479.22V1408.93C520.415 1368.84 502.932 1349.95 465.95 1349.95H419.963V1538.23H465.95C502.932 1538.23 520.415 1519.31 520.415 1479.25V1479.22ZM449.023 1511.39V1376.74H463.406C484.017 1376.74 491.355 1387.18 491.355 1416.83V1471.3C491.355 1500.66 484.017 1511.39 463.406 1511.39H449.023Z" fill="white"/>
<path d="M622.414 1538.2H652.321L614.228 1349.93H574.439L538.305 1538.2H566.809L574.439 1497.26H614.52L622.414 1538.2ZM578.941 1470.45L594.173 1386.07L609.697 1470.45H578.941Z" fill="white"/>
<path d="M705.326 1429.54L680.213 1349.95H648.025L690.358 1464.81V1538.2H719.447V1464.81L762.89 1349.95H731.287L705.326 1429.54Z" fill="white"/>
<path d="M100.949 1632.94C100.949 1614.31 95.3062 1599.92 84.0215 1590.3C74.9879 1582.41 63.9955 1579.02 46.776 1579.02H1.34473V1767.29H30.4044V1689.95H47.887L72.7075 1767.29H103.2L75.5433 1681.77C92.4704 1673.02 100.949 1656.65 100.949 1632.94ZM63.7031 1657.21C59.2009 1661.71 53.5293 1663.14 41.1337 1663.14H30.4044V1605.83H41.1337C53.5586 1605.83 59.2009 1607.23 63.7031 1611.77C68.4977 1616.56 70.7488 1624.19 70.7488 1634.34C70.7488 1644.49 68.4977 1652.41 63.7031 1657.21Z" fill="white"/>
<path d="M155.501 1579.02H126.441V1767.29H155.501V1579.02Z" fill="white"/>
<path d="M177.224 1579.02L217.568 1767.29H253.703L290.1 1579.02H260.456L235.635 1722.12L207.423 1579.02H177.224Z" fill="white"/>
<path d="M396.865 1605.83V1579.02H311.645V1767.29H396.865V1740.48H340.704V1682.32H382.189V1655.51H340.704V1605.83H396.865Z" fill="white"/>
<path d="M518.806 1767.29L491.15 1681.77C508.077 1673.02 516.555 1656.65 516.555 1632.94C516.555 1614.31 510.913 1599.92 499.628 1590.3C490.594 1582.41 479.602 1579.02 462.382 1579.02H416.951V1767.29H446.011V1689.95H463.493L488.314 1767.29H518.806ZM479.31 1657.21C474.807 1661.71 469.136 1663.14 456.74 1663.14H446.011V1605.83H456.74C469.165 1605.83 474.807 1607.23 479.31 1611.77C484.104 1616.56 486.355 1624.19 486.355 1634.34C486.355 1644.49 484.104 1652.41 479.31 1657.21Z" fill="white"/>
<path d="M1.34473 1996.39H86.5649V1969.55H30.4044V1911.42H71.8889V1884.6H30.4044V1834.93H86.5649V1808.11H1.34473V1996.39Z" fill="white"/>
<path d="M217.627 1808.11H185.995L162.577 1868.52L137.465 1808.11H105.306L145.65 1898.14L103.61 1996.39H135.506L162.022 1927.79L190.819 1996.39H222.977L178.949 1898.14L217.627 1808.11Z" fill="white"/>
<path d="M289.63 1808.11H241.363V1996.39H270.423V1920.19H289.601C308.516 1920.19 320.356 1916.53 329.098 1908.06C339.242 1898.46 344.066 1884.34 344.066 1864.02C344.066 1843.7 339.272 1829.87 329.098 1820.28C320.356 1811.8 308.487 1808.14 289.601 1808.14L289.63 1808.11ZM283.14 1893.35H270.452V1834.93H283.14C306.557 1834.93 313.895 1841.97 313.895 1863.99C313.895 1886.01 306.557 1893.35 283.14 1893.35Z" fill="white"/>
<path d="M366.227 1996.39H451.447V1969.55H395.286V1911.42H436.771V1884.6H395.286V1834.93H451.447V1808.11H366.227V1996.39Z" fill="white"/>
<path d="M517.491 1808.11H471.504V1996.39H517.491C554.473 1996.39 571.956 1977.47 571.956 1937.41V1867.12C571.956 1827.03 554.444 1808.14 517.491 1808.14V1808.11ZM542.896 1929.49C542.896 1958.84 535.558 1969.58 514.947 1969.58H500.564V1834.93H514.947C535.558 1834.93 542.896 1845.37 542.896 1875.01V1929.49Z" fill="white"/>
<path d="M627.619 1808.11H598.56V1996.39H627.619V1808.11Z" fill="white"/>
<path d="M647.848 1834.93H684.275V1996.39H713.334V1834.93H750.024V1808.11H647.848V1834.93Z" fill="white"/>
<path d="M799.316 1808.11H770.256V1996.39H799.316V1808.11Z" fill="white"/>
<path d="M877.491 1805.28C859.424 1805.28 845.332 1811.48 836.854 1823.35C829.224 1834.08 826.125 1846.77 826.125 1867.94V1936.54C826.125 1957.71 829.224 1970.4 836.854 1981.13C845.332 1992.97 859.424 1999.2 877.491 1999.2C895.558 1999.2 909.679 1993 918.128 1981.13C925.729 1970.4 928.857 1957.71 928.857 1936.54V1867.94C928.857 1846.77 925.758 1834.08 918.128 1823.35C909.65 1811.51 895.558 1805.28 877.491 1805.28ZM899.797 1935.98C899.797 1951.21 899.242 1955.75 896.143 1961.65C892.752 1967.85 885.706 1971.83 877.52 1971.83C869.334 1971.83 862.289 1967.88 858.897 1961.65C856.091 1956.01 855.243 1950.92 855.243 1935.98V1868.52C855.243 1853.55 856.091 1848.49 858.897 1842.85C862.289 1836.65 869.334 1832.68 877.52 1832.68C885.706 1832.68 892.752 1836.62 896.143 1842.85C899.242 1848.79 899.797 1853.29 899.797 1868.52V1935.98Z" fill="white"/>
<path d="M1032.47 1925.25L985.076 1808.11H955.724V1996.39H983.38V1871.07L1034.16 1996.39H1060.15V1808.11H1032.47V1925.25Z" fill="white"/>
<path d="M1176.33 1916.77C1170.13 1909.14 1164.2 1903.79 1148.38 1891.36C1135.03 1881.2 1126.75 1874.33 1123.53 1870.75C1118.44 1865.4 1115.64 1858.32 1115.64 1851.83C1115.64 1840.83 1123.82 1832.65 1134.55 1832.65C1146.42 1832.65 1154.87 1841.97 1159.37 1860.6L1187.32 1852.41C1179.43 1821.36 1161.36 1805.28 1134.55 1805.28C1105.76 1805.28 1085.44 1824.46 1085.44 1851.56C1085.44 1863.14 1089.09 1874.14 1095.87 1882.91C1102.92 1891.94 1104.06 1893.06 1130.31 1913.67C1152.33 1930.89 1158.26 1938.49 1158.26 1950.37C1158.26 1963.06 1149.52 1971.83 1136.83 1971.83C1121.31 1971.83 1111.43 1960.54 1107.77 1937.97L1079.82 1946.16C1085.76 1982 1104.67 1999.23 1136.83 1999.23C1168.99 1999.23 1188.49 1979.75 1188.49 1951.24C1188.49 1938.55 1183.96 1926.13 1176.36 1916.8L1176.33 1916.77Z" fill="white"/>
</svg>
