<?xml version="1.0" encoding="UTF-8"?><svg id="Layer_2" xmlns="http://www.w3.org/2000/svg" viewBox="0 0 365.55 581.46"><defs><style>.cls-1,.cls-2{fill:#fff;}.cls-2{fill-rule:evenodd;}</style></defs><g id="Layer_1-2"><g id="uuid-d54ec8f7-9634-48dc-b1e4-a289d313a32f"><path class="cls-2" d="M26.93,134.84L.08,87.42,0,0l197.12.07v25.09l-76.07,42.82c-3.93,2.24-8,3.08-14.73,3.27-5.48.18-10.93-1.66-16.25-4.97-4.91-3.1-10.56-6.21-13.24-7.18-2.44-.82-6.33-1.33-8.58-1.33-7.1,0-12.37,1.04-19.86,5.22l-35,19.66,25.56,45.69,38.55-20.98c7.65-4.13,19.35-2.92,27.43,1.94,5.47,3.27,9.52,8.34,11.81,14.11,2.79,6.99,3.04,14.97.26,21.91-2.54,6.42-7.96,12.37-13.16,15.18l-29.61,16.1c-1.83-1.14-3.41-2.91-4.75-3.99-5.66-4.71-11.31-10.73-14.53-16.5l-15.86-27.73-12.15,6.58,14.53,25.46c3.25,5.76,6.6,15.28,8.38,24.75,0,0-3.61,1.58-5.67,2.07-5.1,1.17-10.31,1.75-15.59,2.01-9.39.19-19.94-1.58-28.51-4.91v-49.49h26.85M127.85,238l-12.7,6.6,16.26,27.65c.66,1.12.77,2.49.27,3.68-2.14,5.01-5.04,7.8-10.42,11.06-3.32,1.97-9.12,3.45-13.78,3.66-1.55.07-3.01-.75-3.78-2.1l-15.96-28.02c-15.55,8.77-32.57,15.03-50.24,16.86-12.66.97-25.41.3-37.27-3.89l-.11,61.7c10.96,4.63,23.2,5.82,35.21,5.31,12.85-.62,27.39-5.06,35.51-9.57,6.77-3.76,14.18-6.72,20.94-10.61,10.06-5.9,28.08-16.55,37.3-20.93,7.47-3.53,17.56-7.18,26.55-8.99,5.82-1.18,12.05-2.02,18.12-1.89,6.56,0,16.54.41,23.08,2.98v-61.86c-11.88-4.69-27.95-4.39-38.83-2.55-9.78,1.62-23.04,7.23-30.15,10.93M124.66,314.87l-42.4,23.59c-10.64,5.88-30.38,12.9-42.56,14.04-13.28,1.27-26.9.83-39.55-3.47l-.12,23.3h196.81v-66.22c-4.38-2.11-9.67-3.34-14.5-3.69-9.4-.74-19.93-.39-29.58,1.58-8.51,1.75-20.59,6.73-28.08,10.88M173.72,150.64c-18.16-.43-38.35,5.66-58.35,16.9l-34.09,19.4,27.48,46.37c16.32-9.6,35.67-17.87,54.49-20.28,7.86-1.13,14.92-.69,23.62.39,3.14.38,6.85.93,9.96,1.89v-59.87c-7.43-2.94-15.09-4.63-23.11-4.82M25.29,264.46c10.34.62,23.23-1.39,33.72-4.63,8.69-2.67,15.43-6.54,22.47-10.48l-28.72-50.72c-16.9,5.26-35.99,4.82-52.69-.55v60.1c2.29,1.91,13.29,5.6,25.21,6.29"/></g><path class="cls-1" d="M21.49,383.69c.19-.19.42-.29.7-.29h7.54c.27,0,.5.1.7.29.19.19.29.42.29.7v55.43c0,.27-.1.51-.29.7-.19.19-.42.29-.7.29h-7.54c-.27,0-.51-.09-.7-.29-.19-.19-.29-.42-.29-.7v-23.21c0-.27-.14-.41-.41-.41h-10.41c-.27,0-.41.14-.41.41v23.21c0,.27-.1.51-.29.7-.19.19-.42.29-.7.29H1.44c-.27,0-.51-.09-.7-.29-.19-.19-.29-.42-.29-.7v-55.43c0-.27.09-.5.29-.7.19-.19.42-.29.7-.29h7.54c.27,0,.5.1.7.29.19.19.29.42.29.7v23.12c0,.27.14.41.41.41h10.41c.27,0,.41-.14.41-.41v-23.12c0-.27.1-.5.29-.7Z"/><path class="cls-1" d="M43.12,437.19c-2.87-2.84-4.3-6.61-4.3-11.32v-27.55c0-4.7,1.43-8.47,4.3-11.32,2.87-2.84,6.66-4.26,11.36-4.26s8.5,1.42,11.4,4.26c2.9,2.84,4.35,6.62,4.35,11.32v27.55c0,4.7-1.45,8.47-4.35,11.32-2.9,2.84-6.7,4.26-11.4,4.26s-8.49-1.42-11.36-4.26ZM58.99,431.33c1.15-1.28,1.72-2.96,1.72-5.04v-28.37c0-2.08-.57-3.76-1.72-5.04-1.15-1.28-2.65-1.93-4.51-1.93s-3.35.64-4.47,1.93c-1.12,1.29-1.68,2.97-1.68,5.04v28.37c0,2.08.56,3.76,1.68,5.04,1.12,1.29,2.61,1.93,4.47,1.93s3.36-.64,4.51-1.93Z"/><path class="cls-1" d="M78.61,440.51c-.19-.19-.29-.42-.29-.7v-55.43c0-.27.09-.5.29-.7.19-.19.42-.29.7-.29h7.54c.27,0,.5.1.7.29.19.19.29.42.29.7v47.81c0,.27.14.41.41.41h17.71c.27,0,.5.1.7.29.19.19.29.42.29.7v6.23c0,.27-.1.51-.29.7-.19.19-.42.29-.7.29h-26.65c-.27,0-.51-.09-.7-.29Z"/><path class="cls-1" d="M114.04,440.51c-.19-.19-.29-.42-.29-.7v-55.43c0-.27.09-.5.29-.7.19-.19.42-.29.7-.29h7.54c.27,0,.5.1.7.29.19.19.29.42.29.7v55.43c0,.27-.1.51-.29.7-.19.19-.42.29-.7.29h-7.54c-.27,0-.51-.09-.7-.29Z"/><path class="cls-1" d="M132.32,440.51c-.19-.19-.29-.42-.29-.7v-55.43c0-.27.09-.5.29-.7.19-.19.42-.29.7-.29h14.02c4.7,0,8.46,1.42,11.27,4.26,2.82,2.84,4.22,6.64,4.22,11.4v26.08c0,4.76-1.41,8.56-4.22,11.4-2.82,2.84-6.57,4.26-11.27,4.26h-14.02c-.27,0-.51-.09-.7-.29ZM141.95,432.6l4.92-.08c1.8,0,3.27-.72,4.39-2.17,1.12-1.45,1.71-3.37,1.76-5.78v-24.93c0-2.46-.56-4.41-1.68-5.86-1.12-1.45-2.64-2.17-4.55-2.17h-4.84c-.27,0-.41.14-.41.41v40.18c0,.27.14.41.41.41Z"/><path class="cls-1" d="M193.32,439.9l-1.56-8.61c0-.27-.16-.41-.49-.41h-11.97c-.33,0-.49.14-.49.41l-1.56,8.61c-.06.6-.41.9-1.07.9h-7.46c-.77,0-1.07-.35-.9-1.07l12.14-55.43c.11-.6.46-.9,1.07-.9h8.69c.6,0,.96.3,1.07.9l12.14,55.43v.33c0,.49-.3.74-.9.74h-7.63c-.66,0-1.01-.3-1.07-.9ZM180.7,423.42h9.1c.33,0,.46-.14.41-.41l-4.76-25.91c-.05-.16-.14-.25-.25-.25s-.19.08-.25.25l-4.67,25.91c-.05.27.08.41.41.41Z"/><path class="cls-1" d="M214.37,440.43c-.19-.19-.29-.42-.29-.7v-22.39l-.08-.49-11.4-32.31c-.05-.11-.08-.25-.08-.41,0-.49.3-.74.9-.74h7.87c.6,0,.98.27,1.15.82l6.15,21.07c.05.16.14.25.25.25s.19-.08.25-.25l6.15-21.07c.16-.55.55-.82,1.15-.82h7.87c.33,0,.57.1.74.29.16.19.19.48.08.86l-11.4,32.31-.08.49v22.39c0,.27-.1.51-.29.7-.19.19-.42.29-.7.29h-7.54c-.27,0-.51-.09-.7-.29Z"/><path class="cls-1" d="M22.1,509.98l-6.97-23.53c-.11-.22-.25-.33-.41-.33h-4.35c-.27,0-.41.14-.41.41v23.29c0,.27-.1.51-.29.7s-.42.29-.7.29H1.44c-.27,0-.51-.09-.7-.29-.19-.19-.29-.42-.29-.7v-55.43c0-.27.09-.5.29-.7.19-.19.42-.29.7-.29h15.42c2.9,0,5.45.7,7.67,2.09,2.21,1.39,3.94,3.36,5.17,5.9,1.23,2.54,1.84,5.45,1.84,8.73s-.66,6.31-1.97,8.77c-1.31,2.46-3.14,4.32-5.49,5.58-.22.06-.3.22-.25.49l8.04,24.68c.05.11.08.25.08.41,0,.49-.3.74-.9.74h-7.87c-.55,0-.9-.27-1.07-.82ZM9.97,462.01v16.32c0,.27.14.41.41.41h5c1.97,0,3.57-.77,4.8-2.3,1.23-1.53,1.84-3.61,1.84-6.23s-.62-4.71-1.84-6.27c-1.23-1.56-2.83-2.34-4.8-2.34h-5c-.27,0-.41.14-.41.41Z"/><path class="cls-1" d="M39.04,510.52c-.19-.19-.29-.42-.29-.7v-55.43c0-.27.09-.5.29-.7.19-.19.42-.29.7-.29h7.54c.27,0,.5.1.7.29.19.19.29.42.29.7v55.43c0,.27-.1.51-.29.7s-.42.29-.7.29h-7.54c-.27,0-.51-.09-.7-.29Z"/><path class="cls-1" d="M66.98,509.9l-11.73-55.43-.08-.33c0-.49.3-.74.9-.74h8.28c.66,0,1.01.3,1.07.9l6.81,39.44c.05.16.14.25.25.25s.19-.08.25-.25l6.64-39.44c.05-.6.41-.9,1.07-.9h8.04c.71,0,.98.36.82,1.07l-11.81,55.43c-.11.6-.47.9-1.07.9h-8.36c-.6,0-.96-.3-1.07-.9Z"/><path class="cls-1" d="M124.61,461.32c-.19.19-.42.29-.7.29h-17.71c-.27,0-.41.14-.41.41v15.5c0,.27.14.41.41.41h10.5c.27,0,.5.1.7.29.19.19.29.42.29.7v6.31c0,.27-.1.51-.29.7s-.42.29-.7.29h-10.5c-.27,0-.41.14-.41.41v15.58c0,.27.14.41.41.41h17.71c.27,0,.5.1.7.29.19.19.29.42.29.7v6.23c0,.27-.1.51-.29.7-.19.19-.42.29-.7.29h-26.65c-.27,0-.51-.09-.7-.29-.19-.19-.29-.42-.29-.7v-55.43c0-.27.09-.5.29-.7.19-.19.42-.29.7-.29h26.65c.27,0,.5.1.7.29.19.19.29.42.29.7v6.23c0,.27-.1.51-.29.7Z"/><path class="cls-1" d="M153.69,509.98l-6.97-23.53c-.11-.22-.25-.33-.41-.33h-4.35c-.27,0-.41.14-.41.41v23.29c0,.27-.1.51-.29.7-.19.19-.42.29-.7.29h-7.54c-.27,0-.51-.09-.7-.29-.19-.19-.29-.42-.29-.7v-55.43c0-.27.09-.5.29-.7s.42-.29.7-.29h15.42c2.9,0,5.45.7,7.67,2.09,2.21,1.39,3.94,3.36,5.17,5.9,1.23,2.54,1.84,5.45,1.84,8.73s-.66,6.31-1.97,8.77c-1.31,2.46-3.14,4.32-5.49,5.58-.22.06-.3.22-.25.49l8.04,24.68c.05.11.08.25.08.41,0,.49-.3.74-.9.74h-7.87c-.55,0-.9-.27-1.07-.82ZM141.55,462.01v16.32c0,.27.14.41.41.41h5c1.97,0,3.57-.77,4.8-2.3,1.23-1.53,1.85-3.61,1.85-6.23s-.62-4.71-1.85-6.27c-1.23-1.56-2.83-2.34-4.8-2.34h-5c-.27,0-.41.14-.41.41Z"/><path class="cls-1" d="M28.79,531.32c-.19.19-.42.29-.7.29H10.38c-.27,0-.41.14-.41.41v15.5c0,.27.14.41.41.41h10.5c.27,0,.5.1.7.29.19.19.29.42.29.7v6.31c0,.27-.1.51-.29.7s-.42.29-.7.29h-10.5c-.27,0-.41.14-.41.41v15.58c0,.27.14.41.41.41h17.71c.27,0,.5.1.7.29.19.19.29.42.29.7v6.23c0,.27-.1.51-.29.7-.19.19-.42.29-.7.29H1.44c-.27,0-.51-.09-.7-.29-.19-.19-.29-.42-.29-.7v-55.43c0-.27.09-.5.29-.7.19-.19.42-.29.7-.29h26.65c.27,0,.5.1.7.29.19.19.29.42.29.7v6.23c0,.27-.1.51-.29.7Z"/><path class="cls-1" d="M35,580.47c-.11-.22-.11-.49,0-.82l11.23-27.31c.05-.16.05-.33,0-.49l-11.23-27.31c-.05-.11-.08-.27-.08-.49,0-.44.27-.66.82-.66h7.79c.55,0,.9.27,1.07.82l6.56,17.79c.05.16.14.25.25.25s.19-.08.25-.25l6.48-17.79c.16-.55.52-.82,1.07-.82h7.71c.38,0,.63.11.74.33.11.22.11.49,0,.82l-11.23,27.31c-.06.16-.06.33,0,.49l11.23,27.31c.05.11.08.27.08.49,0,.44-.27.66-.82.66h-7.63c-.6,0-.98-.27-1.15-.82l-6.48-17.71c-.06-.16-.14-.25-.25-.25s-.19.08-.25.25l-6.56,17.71c-.16.55-.55.82-1.15.82h-7.71c-.38,0-.63-.11-.74-.33Z"/><path class="cls-1" d="M98.36,525.45c2.21,1.42,3.94,3.42,5.17,5.99,1.23,2.57,1.84,5.49,1.84,8.77,0,4.92-1.3,8.88-3.89,11.89-2.6,3.01-6.03,4.51-10.29,4.51h-6.97c-.27,0-.41.14-.41.41v22.8c0,.27-.1.51-.29.7s-.42.29-.7.29h-7.54c-.27,0-.51-.09-.7-.29-.19-.19-.29-.42-.29-.7v-55.51c0-.27.09-.5.29-.7.19-.19.42-.29.7-.29h15.42c2.9,0,5.45.71,7.67,2.13ZM94.02,546.81c1.23-1.56,1.84-3.68,1.84-6.35s-.62-4.91-1.84-6.52c-1.23-1.61-2.86-2.42-4.88-2.42h-4.92c-.27,0-.41.14-.41.41v16.81c0,.27.14.41.41.41h4.92c2.02,0,3.65-.78,4.88-2.34Z"/><path class="cls-1" d="M140.13,531.32c-.19.19-.42.29-.7.29h-17.71c-.27,0-.41.14-.41.41v15.5c0,.27.14.41.41.41h10.5c.27,0,.5.1.7.29.19.19.29.42.29.7v6.31c0,.27-.1.51-.29.7s-.42.29-.7.29h-10.5c-.27,0-.41.14-.41.41v15.58c0,.27.14.41.41.41h17.71c.27,0,.5.1.7.29.19.19.29.42.29.7v6.23c0,.27-.1.51-.29.7-.19.19-.42.29-.7.29h-26.65c-.27,0-.51-.09-.7-.29-.19-.19-.29-.42-.29-.7v-55.43c0-.27.09-.5.29-.7.19-.19.42-.29.7-.29h26.65c.27,0,.5.1.7.29.19.19.29.42.29.7v6.23c0,.27-.1.51-.29.7Z"/><path class="cls-1" d="M147.44,580.52c-.19-.19-.29-.42-.29-.7v-55.43c0-.27.09-.5.29-.7s.42-.29.7-.29h14.02c4.7,0,8.46,1.42,11.28,4.26,2.81,2.84,4.22,6.64,4.22,11.4v26.08c0,4.76-1.41,8.56-4.22,11.4-2.82,2.84-6.57,4.26-11.28,4.26h-14.02c-.27,0-.51-.09-.7-.29ZM157.07,572.6l4.92-.08c1.8,0,3.27-.72,4.39-2.17,1.12-1.45,1.71-3.38,1.76-5.78v-24.93c0-2.46-.56-4.41-1.68-5.86-1.12-1.45-2.64-2.17-4.55-2.17h-4.84c-.27,0-.41.14-.41.41v40.18c0,.27.14.41.41.41Z"/><path class="cls-1" d="M185.35,580.52c-.19-.19-.29-.42-.29-.7v-55.43c0-.27.09-.5.29-.7.19-.19.42-.29.7-.29h7.54c.27,0,.5.1.7.29.19.19.29.42.29.7v55.43c0,.27-.1.51-.29.7s-.42.29-.7.29h-7.54c-.27,0-.51-.09-.7-.29Z"/><path class="cls-1" d="M233.38,523.69c.19.19.29.42.29.7v6.23c0,.27-.1.51-.29.7-.19.19-.42.29-.7.29h-10.41c-.27,0-.41.14-.41.41v47.81c0,.27-.1.51-.29.7s-.42.29-.7.29h-7.54c-.27,0-.51-.09-.7-.29-.19-.19-.29-.42-.29-.7v-47.81c0-.27-.14-.41-.41-.41h-9.84c-.27,0-.51-.09-.7-.29-.19-.19-.29-.42-.29-.7v-6.23c0-.27.09-.5.29-.7s.42-.29.7-.29h30.59c.27,0,.5.1.7.29Z"/><path class="cls-1" d="M240.46,580.52c-.19-.19-.29-.42-.29-.7v-55.43c0-.27.09-.5.29-.7.19-.19.42-.29.7-.29h7.54c.27,0,.5.1.7.29.19.19.29.42.29.7v55.43c0,.27-.1.51-.29.7s-.42.29-.7.29h-7.54c-.27,0-.51-.09-.7-.29Z"/><path class="cls-1" d="M261.27,577.19c-2.87-2.84-4.3-6.61-4.3-11.32v-27.55c0-4.7,1.43-8.47,4.3-11.32,2.87-2.84,6.66-4.26,11.36-4.26s8.5,1.42,11.4,4.26c2.9,2.84,4.35,6.62,4.35,11.32v27.55c0,4.7-1.45,8.47-4.35,11.32-2.9,2.84-6.7,4.26-11.4,4.26s-8.49-1.42-11.36-4.26ZM277.14,571.33c1.15-1.28,1.72-2.96,1.72-5.04v-28.37c0-2.08-.57-3.76-1.72-5.04-1.15-1.28-2.65-1.93-4.51-1.93s-3.35.64-4.47,1.93c-1.12,1.29-1.68,2.97-1.68,5.04v28.37c0,2.08.56,3.76,1.68,5.04,1.12,1.29,2.61,1.93,4.47,1.93s3.36-.64,4.51-1.93Z"/><path class="cls-1" d="M319.23,523.69c.19-.19.42-.29.7-.29h7.46c.27,0,.5.1.7.29.19.19.29.42.29.7v55.43c0,.27-.1.51-.29.7-.19.19-.42.29-.7.29h-8.61c-.55,0-.9-.27-1.07-.82l-12.22-34.77c-.05-.16-.15-.23-.29-.21-.14.03-.21.12-.21.29l.08,34.52c0,.27-.1.51-.29.7-.19.19-.42.29-.7.29h-7.46c-.27,0-.51-.09-.7-.29-.19-.19-.29-.42-.29-.7v-55.43c0-.27.09-.5.29-.7s.42-.29.7-.29h8.45c.55,0,.9.27,1.07.82l12.3,34.52c.05.16.15.23.29.21.14-.03.21-.12.21-.29v-34.28c0-.27.09-.5.29-.7Z"/><path class="cls-1" d="M339.4,577.36c-2.79-2.73-4.18-6.31-4.18-10.74v-2.13c0-.27.09-.5.29-.7.19-.19.42-.29.7-.29h7.46c.27,0,.5.1.7.29s.29.42.29.7v1.64c0,2.13.53,3.85,1.6,5.17,1.07,1.31,2.45,1.97,4.14,1.97s3.09-.62,4.18-1.84c1.09-1.23,1.64-2.86,1.64-4.88,0-1.42-.3-2.65-.9-3.69-.6-1.04-1.45-2.02-2.54-2.95-1.09-.93-2.84-2.27-5.25-4.02-2.73-1.97-4.93-3.72-6.6-5.25-1.67-1.53-3.06-3.38-4.18-5.54-1.12-2.16-1.68-4.66-1.68-7.5,0-4.54,1.37-8.15,4.1-10.82,2.73-2.68,6.34-4.02,10.82-4.02s8.2,1.41,10.99,4.22c2.79,2.82,4.18,6.55,4.18,11.19v1.97c0,.27-.1.51-.29.7s-.42.29-.7.29h-7.38c-.27,0-.51-.09-.7-.29s-.29-.42-.29-.7v-2.13c0-2.13-.53-3.84-1.6-5.12-1.07-1.28-2.47-1.93-4.22-1.93-1.64,0-2.98.59-4.02,1.76-1.04,1.18-1.56,2.8-1.56,4.88,0,1.97.56,3.64,1.68,5,1.12,1.37,3.32,3.25,6.6,5.66,3.33,2.46,5.85,4.47,7.54,6.03,1.7,1.56,3.01,3.27,3.94,5.12.93,1.86,1.39,4.07,1.39,6.64,0,4.65-1.39,8.38-4.18,11.19-2.79,2.82-6.45,4.22-10.99,4.22s-8.2-1.37-10.99-4.1Z"/></g></svg>