<?xml version="1.0" standalone="no"?>
<!DOCTYPE svg PUBLIC "-//W3C//DTD SVG 20010904//EN"
 "http://www.w3.org/TR/2001/REC-SVG-20010904/DTD/svg10.dtd">
<svg version="1.0" xmlns="http://www.w3.org/2000/svg"
 width="944.000000pt" height="944.000000pt" viewBox="0 0 944.000000 944.000000"
 preserveAspectRatio="xMidYMid meet">
<metadata>
Created by potrace 1.11, written by Peter Selinger 2001-2013
</metadata>
<g transform="translate(0.000000,944.000000) scale(0.100000,-0.100000)"
fill="#000000" stroke="none">
<path d="M5193 9421 c-75 -22 -168 -76 -198 -116 -33 -44 -99 -171 -124 -239
-26 -70 -67 -231 -76 -296 -3 -25 -10 -70 -15 -100 -5 -30 -12 -84 -15 -120
-3 -36 -8 -76 -10 -90 -3 -14 -7 -63 -10 -110 -3 -47 -7 -112 -10 -145 -17
-209 -33 -1200 -35 -2125 -2 -584 -2 -586 -56 -748 -77 -231 -242 -443 -490
-630 -110 -82 -153 -141 -159 -214 -9 -108 96 -219 293 -310 123 -57 211 -85
305 -98 127 -18 469 -15 662 5 17 1 66 6 110 10 44 4 89 9 100 11 11 2 45 6
75 9 30 4 62 8 70 10 8 2 38 7 65 10 28 3 75 10 105 15 30 5 73 12 95 15 23 3
52 8 65 10 46 9 285 54 315 60 30 5 159 22 245 32 64 7 348 6 428 -2 211 -21
380 -82 467 -170 58 -58 75 -102 70 -183 -8 -130 -103 -266 -325 -462 -144
-126 -436 -296 -725 -422 -38 -17 -88 -38 -110 -48 -50 -22 -255 -101 -440
-170 -77 -29 -174 -65 -215 -81 -208 -79 -424 -164 -505 -197 -116 -47 -459
-218 -550 -273 -212 -129 -409 -301 -497 -435 -138 -209 -119 -397 56 -562
150 -142 440 -267 731 -316 174 -29 225 -38 255 -46 19 -5 46 -11 60 -14 257
-48 587 -173 759 -288 105 -71 209 -179 249 -261 l33 -66 56 24 c163 72 398
247 573 425 267 273 488 592 691 1000 154 311 267 601 378 970 68 227 173 660
195 803 3 21 13 71 21 110 16 82 41 230 50 297 3 25 8 56 10 70 2 14 7 45 10
70 4 25 8 56 10 70 2 14 7 52 11 85 3 33 8 68 9 77 2 9 6 49 10 90 3 40 8 84
10 98 5 35 13 112 20 195 3 39 8 90 10 115 2 25 7 92 10 150 4 58 8 128 10
155 27 406 27 1472 0 1925 -2 36 -7 117 -10 180 -4 63 -8 131 -10 150 -2 19
-6 87 -10 150 -3 63 -8 122 -10 130 -2 8 -7 31 -10 50 -9 52 -61 153 -97 190
-65 64 -148 85 -250 61 -115 -27 -219 -125 -232 -221 -10 -70 -15 -127 -21
-215 -4 -49 -8 -100 -10 -112 -2 -12 -7 -70 -10 -130 -4 -59 -9 -116 -10 -125
-2 -9 -7 -63 -10 -120 -4 -57 -8 -119 -10 -138 -2 -19 -7 -80 -10 -135 -4 -55
-8 -120 -10 -145 -2 -25 -6 -106 -10 -180 -4 -74 -9 -155 -11 -180 -2 -25 -6
-177 -9 -338 -3 -161 -7 -307 -10 -325 -39 -236 -70 -326 -137 -402 -63 -73
-122 -85 -221 -47 -77 30 -95 53 -115 147 -42 193 -45 400 -17 1140 2 44 6
163 9 265 4 102 9 237 11 300 2 63 7 221 10 350 4 129 8 282 10 340 8 248 19
714 19 820 -1 498 -110 763 -315 762 -200 -2 -350 -164 -428 -462 -31 -121
-43 -192 -55 -345 -16 -188 -15 -175 -31 -450 -3 -49 -8 -119 -10 -155 -3 -36
-7 -112 -10 -170 -3 -58 -8 -136 -10 -175 -2 -38 -7 -119 -10 -180 -3 -60 -8
-141 -10 -180 -8 -129 -15 -259 -20 -380 -3 -66 -7 -156 -10 -200 -2 -44 -7
-125 -10 -180 -9 -162 -15 -260 -20 -347 -3 -46 -7 -121 -10 -168 -2 -47 -7
-123 -10 -170 -3 -47 -7 -134 -10 -195 -5 -114 -8 -136 -27 -220 -32 -146
-119 -235 -231 -235 -71 0 -150 73 -181 168 -38 114 -40 157 -31 602 2 107 7
519 10 915 3 396 8 763 10 815 2 52 6 187 9 300 4 113 9 288 13 390 12 319 6
665 -12 760 -2 10 -7 40 -11 67 -5 26 -8 50 -9 53 -41 192 -109 289 -237 336
-64 24 -200 26 -275 5z"/>
<path d="M3590 9025 c-91 -21 -151 -45 -221 -91 -236 -154 -365 -495 -362
-959 1 -229 -1 -216 31 -209 78 17 232 89 364 171 214 132 383 296 475 461
109 195 99 423 -23 545 -85 85 -155 107 -264 82z"/>
<path d="M3963 8142 c-137 -180 -313 -338 -623 -560 -283 -202 -320 -242 -320
-341 0 -233 184 -481 520 -703 130 -85 323 -187 469 -248 l71 -29 -5 347 c-7
513 -22 1138 -30 1292 -11 209 -18 286 -24 297 -4 8 -25 -12 -58 -55z"/>
<path d="M3026 6378 c2 -64 11 -409 19 -733 3 -99 7 -250 10 -337 19 -628 24
-1050 13 -1138 -18 -136 -61 -243 -120 -302 -44 -44 -74 -58 -124 -58 -121 0
-263 188 -315 420 -10 45 -14 87 -24 245 -8 133 -20 253 -29 302 -3 11 -7 44
-11 74 -10 83 -53 296 -76 374 -64 225 -135 362 -243 470 -102 103 -194 161
-323 206 -90 31 -110 33 -243 33 -138 -1 -242 -23 -333 -72 -56 -30 -121 -93
-138 -134 -15 -36 -8 -59 94 -348 113 -319 200 -636 246 -895 6 -33 13 -69 15
-80 3 -17 10 -59 22 -130 3 -18 18 -138 29 -225 9 -76 21 -209 31 -360 3 -36
6 -213 8 -395 2 -181 6 -355 10 -385 3 -30 8 -80 11 -111 3 -31 8 -67 10 -80
3 -13 8 -51 11 -84 5 -47 52 -286 89 -455 36 -163 155 -483 242 -650 50 -96
166 -280 196 -312 7 -7 23 -26 35 -43 56 -73 185 -205 281 -287 374 -324 824
-568 1341 -729 58 -18 107 -34 110 -34 3 -1 46 -11 95 -23 50 -11 104 -24 120
-27 107 -21 197 -36 240 -41 28 -3 61 -7 74 -9 113 -18 431 -25 576 -12 77 7
169 18 171 21 1 0 -4 28 -11 61 -63 301 -406 558 -910 682 -56 14 -69 17 -120
27 -11 2 -83 21 -160 41 -77 20 -147 38 -155 40 -8 2 -42 10 -75 19 -33 9 -70
19 -81 21 -416 89 -687 347 -688 655 -1 79 2 92 36 161 82 166 290 330 623
490 163 78 211 97 1165 449 300 111 642 238 760 282 118 44 287 106 375 138
335 123 318 115 455 194 252 145 395 308 393 447 -2 174 -176 270 -490 271
-118 1 -274 -7 -334 -17 -13 -2 -46 -6 -74 -10 -86 -11 -118 -16 -190 -30
-146 -30 -253 -54 -350 -80 -55 -14 -118 -31 -140 -36 -22 -6 -110 -34 -195
-64 -227 -78 -347 -101 -535 -99 -279 2 -495 58 -666 175 -75 51 -117 93 -188
188 -145 196 -153 305 -36 476 73 105 268 292 460 439 151 117 252 234 305
356 35 79 35 186 0 254 -61 121 -181 207 -542 389 -286 145 -253 127 -401 218
-125 75 -242 163 -306 230 -21 21 -41 39 -43 39 -3 0 -4 -28 -2 -62z"/>
</g>
</svg>
